<svg width="80" height="48" xmlns="http://www.w3.org/2000/svg">

 <g>
  <title>background</title>
  <rect fill="none" id="canvas_background" height="602" width="802" y="-1" x="-1"/>
 </g>
 <g>
  <title>Layer 1</title>
  <path id="svg_1" fill="#C5A652" d="m13.1199,39.2923c2.0883,-1.3378 3.6189,-2.7486 4.5918,-4.2324c0.9967,-1.5081 1.495,-3.2472 1.495,-5.2175c0,-1.654 -0.3559,-3.1743 -1.0678,-4.5607c-0.7119,-1.3865 -1.7205,-2.4933 -3.0256,-3.3203c-1.2815,-0.827 -2.7527,-1.2405 -4.4139,-1.2405c-1.68481,0 -3.22728,0.4378 -4.62736,1.3135c-1.37636,0.8757 -2.46795,2.0554 -3.27478,3.5391c-0.80683,1.4838 -1.21024,3.1257 -1.21024,4.9257l-1.17465,0c0,-2.0189 0.45088,-3.8554 1.35263,-5.5094c0.90175,-1.6541 2.13572,-2.9554 3.70192,-3.904c1.56619,-0.9487 3.31037,-1.423 5.23248,-1.423c1.8747,0 3.5477,0.4622 5.019,1.3865c1.4713,0.9243 2.6103,2.1648 3.4171,3.7215c0.8306,1.5568 1.2459,3.2595 1.2459,5.1081c0,3.9648 -2.1001,7.3215 -6.3004,10.0701l-9.68195,6.3486l15.87555,0l0,1.0581l-19.57746,0l12.42276,-8.0634z"/>
  <path id="svg_2" fill="#C5A652" d="m37.3148,47.83c-2.5392,0 -4.8647,-0.6324 -6.9767,-1.8973c-2.112,-1.2891 -3.785,-3.0161 -5.019,-5.181c-1.2102,-2.1891 -1.8153,-4.5607 -1.8153,-7.1147c0,-2.4811 0.6169,-4.804 1.8509,-6.9689c1.2577,-2.1648 2.9426,-3.8797 5.0546,-5.1445c2.1357,-1.2892 4.4375,-1.9338 6.9055,-1.9338c2.4916,0 4.7935,0.6446 6.9055,1.9338c2.112,1.2648 3.7849,2.9797 5.0189,5.1445c1.2577,2.1649 1.8866,4.5243 1.8866,7.0783c0,2.5297 -0.617,4.877 -1.851,7.0418c-1.234,2.1405 -2.9069,3.8554 -5.0189,5.1445c-2.112,1.2649 -4.4257,1.8973 -6.9411,1.8973zm0,-1.0581c2.2781,0 4.3782,-0.5838 6.3004,-1.7513c1.9458,-1.1919 3.4883,-2.7851 4.6273,-4.7797c1.1391,-1.9945 1.7086,-4.1715 1.7086,-6.531c0,-2.3351 -0.5695,-4.4999 -1.7086,-6.4945c-1.139,-2.0189 -2.6815,-3.6121 -4.6273,-4.7797c-1.9222,-1.1918 -4.0223,-1.7878 -6.3004,-1.7878c-2.2781,0 -4.3901,0.596 -6.336,1.7878c-1.9222,1.1676 -3.4528,2.7608 -4.5918,4.7797c-1.1391,1.9946 -1.7086,4.1594 -1.7086,6.4945c0,2.3595 0.5695,4.5365 1.7086,6.531c1.139,1.9946 2.6696,3.5878 4.5918,4.7797c1.9459,1.1675 4.0579,1.7513 6.336,1.7513z"/>
  <path opacity="0.8" id="svg_3" fill="#C5A652" d="m54.4492,21.1222l-4.2002,0l0,-1.0581l5.3749,0l0,27.2916l-1.1747,0l0,-26.2335z"/>
  <path opacity="0.8" id="svg_4" fill="#C5A652" d="m69.4424,19.5533c1.8272,0 3.5121,0.4622 5.0545,1.3865c1.5662,0.9243 2.8002,2.1649 3.7019,3.7216c0.9255,1.5567 1.3883,3.2594 1.3883,5.108c0,2.7486 -1.2221,5.5581 -3.6664,8.4283l-7.7953,9.158l-1.3527,0l7.4751,-8.5742c-0.617,0.4378 -1.4001,0.7905 -2.3493,1.0581c-0.9492,0.2675 -1.8629,0.4013 -2.7409,0.4013c-1.7086,0 -3.3222,-0.4743 -4.841,-1.4229c-1.495,-0.9487 -2.6933,-2.2257 -3.5951,-3.8311c-0.878,-1.6053 -1.317,-3.3324 -1.317,-5.181c0,-1.8486 0.4509,-3.5513 1.3526,-5.108c0.9018,-1.5811 2.112,-2.8338 3.6307,-3.7581c1.5425,-0.9243 3.2273,-1.3865 5.0546,-1.3865zm0,1.0217c-1.6137,0 -3.0968,0.4135 -4.4494,1.2405c-1.3527,0.827 -2.4324,1.9581 -3.2392,3.3932c-0.7831,1.4108 -1.1747,2.9553 -1.1747,4.6337c0,1.6784 0.4034,3.2351 1.2103,4.6702c0.8068,1.4351 1.8865,2.5784 3.2392,3.4297c1.3526,0.827 2.8238,1.2405 4.4138,1.2405c1.5899,0 3.073,-0.4256 4.4494,-1.277c1.3764,-0.8513 2.4679,-1.9945 3.2748,-3.4297c0.8305,-1.4351 1.2458,-2.9797 1.2458,-4.6337c0,-1.6784 -0.4034,-3.2229 -1.2102,-4.6337c-0.8069,-1.4351 -1.8984,-2.5662 -3.2748,-3.3932c-1.3764,-0.827 -2.8714,-1.2405 -4.485,-1.2405z"/>
  <path id="svg_5" fill="#C5A652" d="m0.19472,0.46657l1.35728,0l0,2.88422c1.30072,-2.23386 3.3932,-3.35079 6.27742,-3.35079c1.38556,0 2.58728,0.39587 3.60528,1.18762c1.018,0.76347 1.7249,1.92281 2.1207,3.47803c0.3676,-1.38556 1.1735,-2.50248 2.4177,-3.35078c1.2725,-0.87658 2.7004,-1.31487 4.2839,-1.31487c2.0642,0 3.6618,0.60795 4.7929,1.82385c1.1311,1.18762 1.6966,2.88422 1.6966,5.0898l0,19.58635l-1.3573,0l0,-19.58635c0,-1.78143 -0.4665,-3.18113 -1.3997,-4.19909c-0.9048,-1.01796 -2.1066,-1.52694 -3.6052,-1.52694c-1.1311,0 -2.1773,0.28277 -3.1387,0.8483c-0.9615,0.53726 -1.7249,1.27245 -2.2905,2.20558c-0.5655,0.93313 -0.8483,1.96523 -0.8483,3.0963l0,13.1622l-1.3572,0l0,-12.82288c0,-2.03592 -0.4807,-3.61942 -1.4421,-4.75048c-0.9615,-1.15935 -2.20563,-1.73902 -3.73257,-1.73902c-1.01796,0 -1.99351,0.25449 -2.92664,0.76347c-0.90485,0.50898 -1.65418,1.20176 -2.24799,2.07834c-0.56554,0.8483 -0.8483,1.78143 -0.8483,2.79939l0,23.67118l-1.35728,0l0,-30.03344l0,0.00001z"/>
  <path id="svg_6" fill="#C5A652" d="m41.3777,18.8747c1.4704,0 2.8701,-0.3818 4.1991,-1.1452c1.329,-0.7635 2.4318,-1.8097 3.3084,-3.1387l0,2.1631c-1.0463,1.1594 -2.1915,2.0077 -3.4357,2.5449c-1.2441,0.509 -2.658,0.7635 -4.2415,0.7635c-1.7531,0 -3.4073,-0.4666 -4.9625,-1.3997c-1.527,-0.9331 -2.757,-2.1773 -3.6901,-3.7325c-0.9049,-1.5552 -1.3573,-3.2094 -1.3573,-4.96257c0,-1.89454 0.4524,-3.59114 1.3573,-5.0898c0.9048,-1.52694 2.1349,-2.71456 3.6901,-3.56286c1.5835,-0.8483 3.3366,-1.27245 5.2594,-1.27245c2.9408,0 5.4433,1.15934 7.5075,3.47803l-13.3183,13.14865c0.9331,0.7635 1.838,1.329 2.7146,1.6966c0.8765,0.3393 1.8662,0.509 2.969,0.509zm-8.8223,-9.03442c0,2.34692 0.7776,4.35462 2.3328,6.02292l12.4276,-12.34275c-0.9331,-0.82003 -1.838,-1.3997 -2.7146,-1.73902c-0.8765,-0.3676 -1.9228,-0.55139 -3.1387,-0.55139c-1.7248,0 -3.2659,0.38173 -4.6232,1.1452c-1.329,0.73519 -2.3752,1.75315 -3.1387,3.05388c-0.7635,1.30073 -1.1452,2.77112 -1.1452,4.41116z"/>
  <path id="svg_7" fill="#C5A652" d="m53,0.46657l1.3573,0l0,2.88422c1.3007,-2.23386 3.3932,-3.35079 6.2774,-3.35079c1.3856,0 2.5873,0.39587 3.6053,1.18762c1.0179,0.76347 1.7249,1.92281 2.1207,3.47803c0.3676,-1.38556 1.1735,-2.50248 2.4177,-3.35078c1.2724,-0.87658 2.7004,-1.31487 4.2839,-1.31487c2.0642,0 3.6618,0.60795 4.7929,1.82385c1.1311,1.18762 1.6966,2.88422 1.6966,5.0898l0,24.08635l-1.0518,0l-0.3055,-24.08635c0,-1.78143 -0.4665,-3.18113 -1.3997,-4.19909c-0.9048,-1.01796 -2.1066,-1.52694 -3.6052,-1.52694c-1.1311,0 -2.1774,0.28277 -3.1388,0.8483c-0.9614,0.53726 -1.7248,1.27245 -2.2904,2.20558c-0.5655,0.93313 -0.8483,1.96523 -0.8483,3.0963l0,13.1622l-1.3573,0l0,-12.82288c0,-2.03592 -0.4807,-3.61942 -1.4421,-4.75048c-0.9614,-1.15935 -2.2055,-1.73902 -3.7325,-1.73902c-1.0179,0 -1.9935,0.25449 -2.9266,0.76347c-0.9049,0.50898 -1.6542,1.20176 -2.248,2.07834c-0.5656,0.8483 -0.8483,1.78143 -0.8483,2.79939l0,13.67118l-1.3573,0l0,-20.03344l0,0.00001z"/>
  <path stroke-width="10" stroke="null" id="svg_11" fill="#bf0000" d="m71.81459,47.33c-1.39012,0 -2.66325,-0.6324 -3.8195,-1.8973c-1.15625,-1.2891 -2.07215,-3.0161 -2.74773,-5.181c-0.66254,-2.1891 -0.99381,-4.5607 -0.99381,-7.1147c0,-2.4811 0.33773,-4.804 1.0133,-6.9689c0.68855,-2.1648 1.61097,-3.8797 2.76722,-5.1445c1.16922,-1.2892 2.42938,-1.9338 3.78052,-1.9338c1.36406,0 2.62427,0.6446 3.78052,1.9338c1.15625,1.2648 2.0721,2.9797 2.74767,5.1445c0.68855,2.1649 1.03285,4.5243 1.03285,7.0783c0,2.5297 -0.33779,4.877 -1.01336,7.0418c-0.67557,2.1405 -1.59143,3.8554 -2.74767,5.1445c-1.15625,1.2649 -2.42292,1.8973 -3.80001,1.8973zm0,-1.0581c1.24718,0 2.39691,-0.5838 3.44925,-1.7513c1.06526,-1.1919 1.90972,-2.7851 2.53328,-4.7797c0.62362,-1.9945 0.9354,-4.1715 0.9354,-6.531c0,-2.3351 -0.31178,-4.4999 -0.9354,-6.4945c-0.62356,-2.0189 -1.46803,-3.6121 -2.53328,-4.7797c-1.05234,-1.1918 -2.20207,-1.7878 -3.44925,-1.7878c-1.24718,0 -2.40343,0.596 -3.46874,1.7878c-1.05234,1.1676 -1.89029,2.7608 -2.51385,4.7797c-0.62362,1.9946 -0.9354,4.1594 -0.9354,6.4945c0,2.3595 0.31178,4.5365 0.9354,6.531c0.62356,1.9946 1.46151,3.5878 2.51385,4.7797c1.06531,1.1675 2.22156,1.7513 3.46874,1.7513z"/>
  <path stroke="null" id="svg_12" fill="#bf0000" d="m58.82418,39.2923c1.38241,-1.3378 2.39563,-2.7486 3.03967,-4.2324c0.65979,-1.5081 0.98966,-3.2472 0.98966,-5.2175c0,-1.654 -0.2356,-3.1743 -0.70686,-4.5607c-0.47126,-1.3865 -1.13893,-2.4933 -2.00288,-3.3203c-0.84833,-0.827 -1.82223,-1.2405 -2.92191,-1.2405c-1.11531,0 -2.13639,0.4378 -3.06321,1.3135c-0.91112,0.8757 -1.63373,2.0554 -2.16783,3.5391c-0.5341,1.4838 -0.80115,3.1257 -0.80115,4.9257l-0.77759,0c0,-2.0189 0.29847,-3.8554 0.89541,-5.5094c0.59694,-1.6541 1.4138,-2.9554 2.45059,-3.904c1.03678,-0.9487 2.19139,-1.423 3.46379,-1.423c1.24101,0 2.3485,0.4622 3.32247,1.3865c0.97397,0.9243 1.72796,2.1648 2.26205,3.7215c0.54984,1.5568 0.82476,3.2595 0.82476,5.1081c0,3.9648 -1.39022,7.3215 -4.17073,10.0701l-6.40924,6.3486l10.50927,0l0,1.0581l-12.95986,0l8.2236,-8.0634z"/>
 </g>
</svg>