<svg width="133" height="81" viewBox="0 0 133 81" fill="none" xmlns="http://www.w3.org/2000/svg">
<rect x="27.9519" y="40.2792" width="54.6588" height="54.6588" transform="rotate(-45 27.9519 40.2792)" stroke="#C5A652" stroke-width="2"/>
<rect x="1" y="18" width="131" height="45" fill="#0A0A0A" stroke="#C5A652" stroke-width="2"/>
<path d="M44.9429 39.271L44.064 37.8184V28.7852H44.9429V39.271ZM46.7007 42.1519L45.8218 40.6748V28.7852H46.7007V42.1519ZM48.4585 45.0693L47.5796 43.5801V28.7852H48.4585V45.0693ZM35.8608 38.5142L36.7397 39.9668V49H35.8608V38.5142ZM34.103 35.6333L34.9819 37.1104V49H34.103V35.6333ZM32.3452 32.7158L33.2241 34.2051V49H32.3452V32.7158ZM32.6504 28.7852H33.6758L46.1025 49H45.0771L32.6504 28.7852ZM34.7256 28.7852H35.7632L48.1777 49H47.1279L34.7256 28.7852ZM36.7886 28.7852H37.814L49.3374 47.5718V28.7852H50.2163V49C50.2163 49 49.8704 49 49.1787 49L36.7886 28.7852ZM31.4663 30.2134V49H30.5874V28.7852C30.5874 28.7852 30.9373 28.7852 31.6372 28.7852L44.0273 49H43.0142L31.4663 30.2134ZM56.9302 49H56.0513V31.4219H56.9302V49ZM55.1724 49H54.2935V31.4219H55.1724V49ZM53.4146 49H52.5356V31.4219H53.4146V49ZM58.688 44.6055H67.0986V45.4844H58.688V46.3633H67.0986V47.2422H58.688V48.1211H67.0986V49H57.8091V31.4219H67.0986V32.3008H58.688V33.1797H67.0986V34.0586H58.688V34.9375H67.0986V35.8164H58.688V38.0015H66.6104V38.8804H58.688V39.7593H66.6104V40.6382H58.688V41.5171H66.6104V42.396H58.688V44.6055ZM86.2759 31.4219H87.3501L76.144 49H75.0454L86.2759 31.4219ZM84.103 31.4219H85.1772L73.959 49H72.8848L84.103 31.4219ZM81.9302 31.4219H83.0166L71.7983 49H70.7119L81.9302 31.4219ZM79.7573 31.4219H80.856L69.6255 49H68.5513L79.7573 31.4219ZM74.3862 38.8804L73.8491 39.7349L68.5513 31.4219H69.6255L74.3862 38.8804ZM78.2314 46.5952L78.7686 45.7407L80.856 49H79.7573L78.2314 46.5952ZM75.4727 37.1836L74.9355 38.0259L70.7241 31.4219H71.7983L75.4727 37.1836ZM79.3179 44.8862L79.855 44.0439L83.0166 49H81.9424L79.3179 44.8862ZM76.5591 35.4746L76.022 36.3291L72.8848 31.4219H73.9712L76.5591 35.4746ZM80.3921 43.1895L80.9414 42.335L85.1895 49H84.103L80.3921 43.1895ZM77.6455 33.7778L77.0962 34.6323L75.0454 31.4219H76.144L77.6455 33.7778ZM81.4785 41.4927L82.0278 40.6504L87.3501 49H86.2759L81.4785 41.4927ZM92.0742 36.2925H92.9531V49H92.0742V36.2925ZM88.5586 32.3008V31.4219H101.742V32.3008H88.5586ZM88.5586 34.0586V33.1797H101.742V34.0586H88.5586ZM88.5586 35.8164V34.9375H101.742V35.8164H88.5586ZM97.3477 36.2925H98.2266V49H97.3477V36.2925ZM95.5898 36.2925H96.4688V49H95.5898V36.2925ZM93.832 36.2925H94.7109V49H93.832V36.2925Z" fill="#C5A652"/>
</svg>
