<svg width="80" height="48" viewBox="0 0 80 48" fill="none" xmlns="http://www.w3.org/2000/svg">
<path d="M13.1199 39.2923C15.2082 37.9545 16.7388 36.5437 17.7117 35.0599C18.7084 33.5518 19.2067 31.8127 19.2067 29.8424C19.2067 28.1884 18.8508 26.6681 18.1389 25.2817C17.427 23.8952 16.4184 22.7884 15.1133 21.9614C13.8318 21.1344 12.3606 20.7209 10.6994 20.7209C9.01459 20.7209 7.47212 21.1587 6.07204 22.0344C4.69568 22.9101 3.60409 24.0898 2.79726 25.5735C1.99043 27.0573 1.58702 28.6992 1.58702 30.4992H0.412373C0.412373 28.4803 0.863247 26.6438 1.765 24.9898C2.66675 23.3357 3.90072 22.0344 5.46692 21.0858C7.03311 20.1371 8.77729 19.6628 10.6994 19.6628C12.5741 19.6628 14.2471 20.125 15.7184 21.0493C17.1897 21.9736 18.3287 23.2141 19.1355 24.7708C19.9661 26.3276 20.3814 28.0303 20.3814 29.8789C20.3814 33.8437 18.2813 37.2004 14.081 39.949L4.39905 46.2976H20.2746V47.3557H0.697136L13.1199 39.2923Z" fill="#C5A652"/>
<path d="M37.3148 47.83C34.7756 47.83 32.4501 47.1976 30.3381 45.9327C28.2261 44.6436 26.5531 42.9166 25.3191 40.7517C24.1089 38.5626 23.5038 36.191 23.5038 33.637C23.5038 31.1559 24.1207 28.833 25.3547 26.6681C26.6124 24.5033 28.2973 22.7884 30.4093 21.5236C32.545 20.2344 34.8468 19.5898 37.3148 19.5898C39.8064 19.5898 42.1083 20.2344 44.2203 21.5236C46.3323 22.7884 48.0052 24.5033 49.2392 26.6681C50.4969 28.833 51.1258 31.1924 51.1258 33.7464C51.1258 36.2761 50.5088 38.6234 49.2748 40.7882C48.0408 42.9287 46.3679 44.6436 44.2559 45.9327C42.1439 47.1976 39.8302 47.83 37.3148 47.83ZM37.3148 46.7719C39.5929 46.7719 41.693 46.1881 43.6152 45.0206C45.561 43.8287 47.1035 42.2355 48.2425 40.2409C49.3816 38.2464 49.9511 36.0694 49.9511 33.7099C49.9511 31.3748 49.3816 29.21 48.2425 27.2154C47.1035 25.1965 45.561 23.6033 43.6152 22.4357C41.693 21.2439 39.5929 20.6479 37.3148 20.6479C35.0367 20.6479 32.9247 21.2439 30.9788 22.4357C29.0566 23.6033 27.526 25.1965 26.387 27.2154C25.2479 29.21 24.6784 31.3748 24.6784 33.7099C24.6784 36.0694 25.2479 38.2464 26.387 40.2409C27.526 42.2355 29.0566 43.8287 30.9788 45.0206C32.9247 46.1881 35.0367 46.7719 37.3148 46.7719Z" fill="#C5A652"/>
<path d="M54.4492 21.1222H50.249V20.0641H55.6239V47.3557H54.4492V21.1222Z" fill="#C5A652"/>
<path d="M69.4424 19.5533C71.2696 19.5533 72.9545 20.0155 74.4969 20.9398C76.0631 21.8641 77.2971 23.1047 78.1988 24.6614C79.1243 26.2181 79.5871 27.9208 79.5871 29.7694C79.5871 32.518 78.365 35.3275 75.9207 38.1977L68.1254 47.3557H66.7727L74.2478 38.7815C73.6308 39.2193 72.8477 39.572 71.8985 39.8396C70.9493 40.1071 70.0356 40.2409 69.1576 40.2409C67.449 40.2409 65.8354 39.7666 64.3166 38.818C62.8216 37.8693 61.6233 36.5923 60.7215 34.9869C59.8435 33.3816 59.4045 31.6545 59.4045 29.8059C59.4045 27.9573 59.8554 26.2546 60.7571 24.6979C61.6589 23.1168 62.8691 21.8641 64.3878 20.9398C65.9303 20.0155 67.6151 19.5533 69.4424 19.5533ZM69.4424 20.575C67.8287 20.575 66.3456 20.9885 64.993 21.8155C63.6403 22.6425 62.5606 23.7736 61.7538 25.2087C60.9707 26.6195 60.5791 28.164 60.5791 29.8424C60.5791 31.5208 60.9825 33.0775 61.7894 34.5126C62.5962 35.9477 63.6759 37.091 65.0286 37.9423C66.3812 38.7693 67.8524 39.1828 69.4424 39.1828C71.0323 39.1828 72.5154 38.7572 73.8918 37.9058C75.2682 37.0545 76.3597 35.9113 77.1666 34.4761C77.9971 33.041 78.4124 31.4964 78.4124 29.8424C78.4124 28.164 78.009 26.6195 77.2022 25.2087C76.3953 23.7736 75.3038 22.6425 73.9274 21.8155C72.551 20.9885 71.056 20.575 69.4424 20.575Z" fill="#C5A652"/>
<path d="M0.194717 0.466565H1.552V3.35079C2.85272 1.11693 4.9452 0 7.82942 0C9.21498 0 10.4167 0.395873 11.4347 1.18762C12.4527 1.95109 13.1596 3.11043 13.5554 4.66565C13.923 3.28009 14.7289 2.16317 15.9731 1.31487C17.2456 0.438289 18.6735 0 20.257 0C22.3212 0 23.9188 0.607949 25.0499 1.82385C26.181 3.01147 26.7465 4.70807 26.7465 6.91365V26.5H25.3892V6.91365C25.3892 5.13222 24.9227 3.73252 23.9895 2.71456C23.0847 1.6966 21.8829 1.18762 20.3843 1.18762C19.2532 1.18762 18.207 1.47039 17.2456 2.03592C16.2841 2.57318 15.5207 3.30837 14.9551 4.2415C14.3896 5.17463 14.1068 6.20673 14.1068 7.3378V20.5H12.7496V7.67712C12.7496 5.6412 12.2689 4.0577 11.3075 2.92664C10.346 1.76729 9.10187 1.18762 7.57493 1.18762C6.55697 1.18762 5.58142 1.44211 4.64829 1.95109C3.74344 2.46007 2.99411 3.15285 2.4003 4.02943C1.83476 4.87773 1.552 5.81086 1.552 6.82882V30.5H0.194717L0.194717 0.466565Z" fill="#C5A652"/>
<path d="M41.3777 18.8747C42.8481 18.8747 44.2478 18.4929 45.5768 17.7295C46.9058 16.966 48.0086 15.9198 48.8852 14.5908V16.7539C47.8389 17.9133 46.6937 18.7616 45.4495 19.2988C44.2054 19.8078 42.7915 20.0623 41.208 20.0623C39.4549 20.0623 37.8007 19.5957 36.2455 18.6626C34.7185 17.7295 33.4885 16.4853 32.5554 14.9301C31.6505 13.3749 31.1981 11.7207 31.1981 9.96753C31.1981 8.07299 31.6505 6.37639 32.5554 4.87773C33.4602 3.35079 34.6903 2.16317 36.2455 1.31487C37.829 0.466566 39.5821 0.0424157 41.5049 0.0424157C44.4457 0.0424157 46.9482 1.20176 49.0124 3.52045L35.6941 16.6691C36.6272 17.4326 37.5321 17.9981 38.4087 18.3657C39.2852 18.705 40.2749 18.8747 41.3777 18.8747ZM32.5554 9.84028C32.5554 12.1872 33.333 14.1949 34.8882 15.8632L47.3158 3.52045C46.3827 2.70042 45.4778 2.12075 44.6012 1.78143C43.7247 1.41383 42.6784 1.23004 41.4625 1.23004C39.7377 1.23004 38.1966 1.61177 36.8393 2.37524C35.5103 3.11043 34.4641 4.12839 33.7006 5.42912C32.9371 6.72985 32.5554 8.20024 32.5554 9.84028Z" fill="#C5A652"/>
<path d="M53 0.466565H54.3573V3.35079C55.658 1.11693 57.7505 0 60.6347 0C62.0203 0 63.222 0.395873 64.24 1.18762C65.2579 1.95109 65.9649 3.11043 66.3607 4.66565C66.7283 3.28009 67.5342 2.16317 68.7784 1.31487C70.0508 0.438289 71.4788 0 73.0623 0C75.1265 0 76.7241 0.607949 77.8552 1.82385C78.9863 3.01147 79.5518 4.70807 79.5518 6.91365V31H78.5L78.1945 6.91365C78.1945 5.13222 77.728 3.73252 76.7948 2.71456C75.89 1.6966 74.6882 1.18762 73.1896 1.18762C72.0585 1.18762 71.0122 1.47039 70.0508 2.03592C69.0894 2.57318 68.326 3.30837 67.7604 4.2415C67.1949 5.17463 66.9121 6.20673 66.9121 7.3378V20.5H65.5548V7.67712C65.5548 5.6412 65.0741 4.0577 64.1127 2.92664C63.1513 1.76729 61.9072 1.18762 60.3802 1.18762C59.3623 1.18762 58.3867 1.44211 57.4536 1.95109C56.5487 2.46007 55.7994 3.15285 55.2056 4.02943C54.64 4.87773 54.3573 5.81086 54.3573 6.82882V20.5H53V0.466565Z" fill="#C5A652"/>
</svg>
